{"accessors":[{"bufferView":2,"componentType":5126,"count":2599,"max":[1,1,0.9980270266532898],"min":[-1.0000005960464478,-1,-0.9980275630950928],"type":"VEC3","byteOffset":0},{"bufferView":2,"byteOffset":31188,"componentType":5126,"count":2599,"max":[1,1,0.9980268478393555],"min":[-1,-1,-0.9980267882347107],"type":"VEC3"},{"bufferView":3,"componentType":5126,"count":2599,"max":[1,0.031372230499982834,1,1],"min":[-1,-0.03137211129069328,-1,1],"type":"VEC4","byteOffset":0},{"bufferView":1,"componentType":5126,"count":2599,"max":[0.9999995827674866,1],"min":[0,0],"type":"VEC2","byteOffset":0},{"bufferView":0,"componentType":5125,"count":14700,"max":[2598],"min":[0],"type":"SCALAR","byteOffset":0}],"asset":{"extras":{"author":"rondinellimorais (https://sketchfab.com/rondinellimorais)","license":"CC-BY-4.0 (http://creativecommons.org/licenses/by/4.0/)","source":"https://sketchfab.com/models/7ae489b78e114ac290ffbd989729f4a4","title":"Jabulani"},"generator":"Sketchfab-3.20.7","version":"2.0"},"bufferViews":[{"buffer":0,"byteLength":58800,"byteOffset":0,"name":"floatBufferViews","target":34963},{"buffer":0,"byteLength":20792,"byteOffset":58800,"byteStride":8,"name":"floatBufferViews","target":34962},{"buffer":0,"byteLength":62376,"byteOffset":79592,"byteStride":12,"name":"floatBufferViews","target":34962},{"buffer":0,"byteLength":41584,"byteOffset":141968,"byteStride":16,"name":"floatBufferViews","target":34962},{"buffer":0,"byteOffset":183552,"byteLength":720866}],"buffers":[{"byteLength":904420,"uri":"data:application/octet-stream;base64,"}],"images":[{"bufferView":4,"mimeType":"image/png"}],"materials":[{"doubleSided":true,"emissiveFactor":[0,0,0],"name":"JABULANI","pbrMetallicRoughness":{"baseColorFactor":[1,1,1,1],"baseColorTexture":{"index":0,"texCoord":0},"metallicFactor":0,"roughnessFactor":0.6},"alphaMode":"OPAQUE"}],"meshes":[{"name":"pSphere1_JABULANI_0","primitives":[{"attributes":{"NORMAL":1,"POSITION":0,"TANGENT":2,"TEXCOORD_0":3},"indices":4,"material":0,"mode":4}]}],"nodes":[{"children":[1],"name":"RootNode (gltf orientation matrix)","rotation":[-0.7071067811865475,0,0,0.7071067811865476],"translation":[0,0,0],"scale":[1,1,1]},{"children":[2],"name":"RootNode (model correction matrix)"},{"children":[3],"matrix":[1,0,0,0,0,0,1,0,0,-1,0,0,0,0,0,1],"name":"Jabulani.fbx"},{"children":[4],"name":"RootNode"},{"children":[5],"matrix":[-6.791113328109884,7.136210612484751,-0.6481454054754355,0,0.6686515980860175,-0.257979507003962,-9.84637833022648,0,-7.134318426644267,-6.817093169074089,-0.30586912073315986,0,0,11.433774948120117,0,1],"name":"pSphere1"},{"mesh":0,"name":"pSphere1_JABULANI_0"}],"samplers":[{"magFilter":9729,"minFilter":9987,"wrapS":10497,"wrapT":10497}],"scene":0,"scenes":[{"name":"OSG_Scene","nodes":[0]}],"textures":[{"sampler":0,"source":0}]}
